# xmcd CD database file
#
# Track frame offsets:
#	150
#	17515
#	39917
#	55457
#	67607
#	87682
#	105947
#	135170
#	150600
#	164472
#	182735
#	200595
#
# Disc length: 2885 seconds
#
# Revision: 2
# Processed by: cddbd v1.5.2PL0 Copyright (c) Steve Scherf et al.
# Submitted via: CDex 1.70beta2
#
DISCID=8f0b430c
DTITLE=八代亜紀 - 哀歌 -aiuta-
DYEAR=2015
DGENRE=Blues
TTITLE0=St. Louis Blues
TTITLE1=The Thrill is Gone
TTITLE2=別れのブルース
TTITLE3=フランチェスカの鐘
TTITLE4=Give You What You Want
TTITLE5=ネオンテトラ
TTITLE6=命のブルース
TTITLE7=The House of the Rising Sun
TTITLE8=夢は夜ひらく
TTITLE9=Bensonhurst Blues
TTITLE10=あなたのブルース
TTITLE11=Sweet Home Kumamoto
EXTD=YEAR: 2015
EXTT0=
EXTT1=
EXTT2=
EXTT3=
EXTT4=
EXTT5=
EXTT6=
EXTT7=
EXTT8=
EXTT9=
EXTT10=
EXTT11=
PLAYORDER=
